<svg id="Layer_1" data-name="Layer 1" xmlns="http://www.w3.org/2000/svg" viewBox="0 0 400 300" width="406" height="306" class="illustration styles_illustrationTablet__1DWOa"><title>_</title><path d="M294.73,60.09c33.57,9.66,65.41,36.59,66.09,71.65s-10.76,70.86-72.19,85.14C230.93,230.29,94.15,236,58.07,192.65,24.05,151.81,35.51,85,95.75,63.27,138,48,229.16,41.22,294.73,60.09Z" fill="#e6e6e6" opacity="0.3"></path><path d="M146.22,121.11a8.82,8.82,0,0,0-8.82-8.82,8.43,8.43,0,0,0-1.42.13,11.86,11.86,0,0,0-10.47-6.26l-.43,0a14.24,14.24,0,0,0,.43-3.42,14.11,14.11,0,0,0-28.21,0,14.24,14.24,0,0,0,.43,3.42l-.43,0a11.89,11.89,0,1,0,0,23.77h41.25v-.08A8.82,8.82,0,0,0,146.22,121.11Z" fill="#e6e6e6" opacity="0.49"></path><path d="M326.36,154.16a5.36,5.36,0,0,0-5.37-5.37,6.11,6.11,0,0,0-.86.07,7.23,7.23,0,0,0-6.37-3.81h-.27a8.35,8.35,0,0,0,.27-2.08,8.59,8.59,0,1,0-17.18,0,8.84,8.84,0,0,0,.26,2.08h-.26a7.24,7.24,0,1,0,0,14.47h25.11v-.05A5.36,5.36,0,0,0,326.36,154.16Z" fill="#e6e6e6" opacity="0.49"></path><path d="M170.91,79.52a5.18,5.18,0,0,1,5.18-5.18,4.58,4.58,0,0,1,.83.08,7,7,0,0,1,6.15-3.68h.26a7.8,7.8,0,0,1-.26-2,8.29,8.29,0,1,1,16.32,2h.26a7,7,0,0,1,0,14H175.41v0A5.18,5.18,0,0,1,170.91,79.52Z" fill="#e6e6e6" opacity="0.49"></path><rect x="172.33" y="164.01" width="1.29" height="15.6" transform="translate(17.1 -15.65) rotate(5.45)" fill="#24285b"></rect><polygon points="186.37 166.69 160.78 164.25 174.09 160.09 186.37 166.69" fill="#ffd200"></polygon><rect x="146.48" y="163.38" width="1.29" height="15.6" transform="translate(-22.89 22.71) rotate(-8.19)" fill="#24285b"></rect><polygon points="158.94 163.04 133.5 166.71 145.45 159.52 158.94 163.04" fill="#ffd200"></polygon><rect x="118.13" y="166.03" width="1.29" height="15.6" transform="translate(-4.92 3.47) rotate(-1.64)" fill="#24285b"></rect><polygon points="131.44 167.09 105.75 167.82 118.44 162.05 131.44 167.09" fill="#ffd200"></polygon><path d="M191,124.23a14.34,14.34,0,0,1,11.47-.07,13.71,13.71,0,0,1-2-11.56c7.07,3.53,8.3,10,8.37,13.8A13.74,13.74,0,0,1,219.33,114,14.54,14.54,0,0,1,214,126.27c7.11-2.2,13.42,2.11,13.42,2.11-7.08,5.72-12.46,3.44-15.61,1.77,2.46,2.91,6.62,10.61,9,20.48.9,3.74,1,9.35,1.07,15.06h-6.51c0-10.6-1.18-25.12-7.22-35.2-5.64,9.77-15.25,7.13-15.25,7.13a14.38,14.38,0,0,1,7-7.48A13.77,13.77,0,0,1,191,124.23Z" fill="#e6e6e6"></path><path d="M271.63,134.11a14.35,14.35,0,0,0-11.16-2.63A13.76,13.76,0,0,0,265,120.64c-7.68,1.86-10.34,7.92-11.26,11.58a13.74,13.74,0,0,0-7.42-14.45A14.52,14.52,0,0,0,248.77,131c-6.44-3.74-13.55-.95-13.55-.95,5.61,7.16,12,6.81,15.44,5.88a48,48,0,0,0-13.76,16.79c-1.72,3.44-3.36,9.37-4.66,14.93l6.35,1.46c2.32-10.35,6.78-24.22,14.93-32.69,3.3,10.79,13.26,10.37,13.26,10.37a14.34,14.34,0,0,0-5.14-8.85A13.79,13.79,0,0,0,271.63,134.11Z" fill="#e6e6e6"></path><path d="M181.73,188c0-17,19.57-30.71,43.72-30.71S269.17,171,269.17,188Z" fill="#e6e6e6"></path><path d="M181.73,188c0-17,19.57-30.71,43.72-30.71S269.17,171,269.17,188Z" opacity="0.09"></path><path d="M86.05,194.67c0-11.23,26.94-20.33,60.17-20.33s60.17,9.1,60.17,20.33Z" fill="#e6e6e6"></path><path d="M327.29,185.48H86.37a11.29,11.29,0,0,0,0,22.58H72.08a11.29,11.29,0,0,0,0,22.58H87.37a11.28,11.28,0,0,0,6.15,20.74H258.86A11.28,11.28,0,0,0,265,230.64h48a11.29,11.29,0,0,0,0-22.58h14.3a11.29,11.29,0,0,0,0-22.58Z" fill="#4dccff"></path><circle cx="290.43" cy="88.66" r="23.19" fill="#ffd200"></circle><rect x="268.67" y="189.25" width="30.07" height="4.98" rx="2.49" fill="#ffd200"></rect><rect x="264.28" y="196.61" width="30.07" height="4.98" rx="2.49" fill="#ffd200"></rect><rect x="121.9" y="222.08" width="49.02" height="5.7" rx="2.85" fill="#fff" opacity="0.44"></rect><rect x="166.36" y="206.1" width="49.02" height="5.7" rx="2.85" fill="#fff" opacity="0.44"></rect><rect x="210.16" y="230.99" width="33.09" height="5.7" rx="2.85" fill="#fff" opacity="0.44"></rect><rect x="216.06" y="188.99" width="33.09" height="5.7" rx="2.85" fill="#fff" opacity="0.44"></rect><rect x="95.57" y="196.25" width="49.02" height="5.7" rx="2.85" fill="#fff" opacity="0.44"></rect><rect x="278.14" y="203.97" width="22.4" height="4.98" rx="2.49" fill="#ffd200"></rect></svg>